<svg width="240" height="52" viewBox="0 0 240 52" fill="none" xmlns="http://www.w3.org/2000/svg">
<g id="Pattern">
<g id="g30">
<path id="path32" d="M119.999 0.0100155V25.7992C97.9067 25.7992 80 14.2533 80 0.0100155H119.999Z" fill="#D4A129"/>
</g>
<g id="g62">
<path id="path64" d="M199.999 51.5887V25.7995C177.907 25.7995 160 37.3454 160 51.5887H199.999Z" fill="#D4A129"/>
</g>
<g id="g70">
<path id="path72" d="M39.9987 51.5887V25.7995C17.9067 25.7995 0 37.3454 0 51.5887H39.9987Z" fill="#80878F"/>
</g>
<g id="g90">
<path id="path92" d="M159.999 51.5887V25.7995C137.907 25.7995 120 37.3454 120 51.5887H159.999Z" fill="#ED1B30"/>
</g>
<g id="g110">
<path id="path112" d="M199.999 0.0100155V25.7992C222.091 25.7992 239.997 14.2533 239.997 0.0100155H199.999Z" fill="#D4A129"/>
</g>
<g id="g114">
<path id="path116" d="M39.9986 25.7995V51.5887C62.0906 51.5887 79.9973 40.0428 79.9973 25.7995H39.9986Z" fill="#D4A129"/>
</g>
<g id="g134">
<path id="path136" d="M119.999 25.7995V51.5887C97.9067 51.5887 80 40.0428 80 25.7995H119.999Z" fill="#80878F"/>
</g>
<g id="g142">
<path id="path144" d="M39.9987 0.0100155V25.7992C17.9067 25.7992 0 14.2533 0 0.0100155H39.9987Z" fill="#28387C"/>
</g>
<g id="g146">
<path id="path148" d="M119.999 0.0100155V25.7992C142.091 25.7992 159.997 14.2533 159.997 0.0100155H119.999Z" fill="#28387C"/>
</g>
<g id="g174">
<path id="path176" d="M199.999 51.5887V25.7995C222.091 25.7995 239.997 37.3454 239.997 51.5887H199.999Z" fill="#28387C"/>
</g>
<g id="g194">
<path id="path196" d="M39.9986 25.7992V0.0100155C62.0906 0.0100155 79.9973 11.5559 79.9973 25.7992H39.9986Z" fill="#80878F"/>
</g>
<g id="g202">
<path id="path204" d="M159.999 25.7992V0.0100155C182.091 0.0100155 199.998 11.5559 199.998 25.7992H159.999Z" fill="#80878F"/>
</g>
</g>
</svg>
